# xmcd
#
# Track frame offsets: 
#        150
#        17771
#        34390
#        49568
#        72934
#        84980
#        101804
#        118373
#        134315
#        147787
#        161975
#        180453
#
# Disc length: 2662 seconds
#
# Revision: 0
# Processed by: cddbd v1.5.2PL0 Copyright (c) Steve Scherf et al.
# Submitted via: ExactAudioCopyFreeDBPlugin 1.0
#
DISCID=a80a640c
DTITLE=Sue Baker - Bit of earth
DYEAR=2010
DGENRE=Indie
TTITLE0=Bit of earth
TTITLE1=Get a grip
TTITLE2=Headed north
TTITLE3=Heather
TTITLE4=Stuck in my head
TTITLE5=Come a time
TTITLE6=For a moment
TTITLE7=Here I am
TTITLE8=Truth be known
TTITLE9=Looking for a corner
TTITLE10=That November
TTITLE11=Less is more
EXTD=
EXTT0=
EXTT1=
EXTT2=
EXTT3=
EXTT4=
EXTT5=
EXTT6=
EXTT7=
EXTT8=
EXTT9=
EXTT10=
EXTT11=
PLAYORDER=
